<svg width="24" height="12" viewBox="0 0 24 12" fill="none" xmlns="http://www.w3.org/2000/svg">
<g clip-path="url(#clip0_2006_10)">
<path d="M6 11C8.76142 11 11 8.76142 11 6C11 3.23858 8.76142 1 6 1C3.23858 1 1 3.23858 1 6C1 8.76142 3.23858 11 6 11Z" stroke="#6E6E6E" stroke-linecap="round" stroke-linejoin="round"/>
<path d="M1 6H11" stroke="#6E6E6E" stroke-linecap="round" stroke-linejoin="round"/>
<path d="M6 1C7.25064 2.36918 7.96138 4.14602 8 6C7.96138 7.85398 7.25064 9.63082 6 11C4.74936 9.63082 4.03862 7.85398 4 6C4.03862 4.14602 4.74936 2.36918 6 1Z" stroke="#6E6E6E" stroke-linecap="round" stroke-linejoin="round"/>
</g>
<path d="M15 4.5L18 7.5L21 4.5" stroke="#6E6E6E" stroke-linecap="round" stroke-linejoin="round"/>
<defs>
<clipPath id="clip0_2006_10">
<rect width="12" height="12" fill="white"/>
</clipPath>
</defs>
</svg>
