<svg width="160" height="40" viewBox="0 0 160 40" fill="none" xmlns="http://www.w3.org/2000/svg">
<path d="M31.0069 18.9346C27.512 16.5881 23.0534 17.5483 20.7026 21.072C18.7436 24.0147 15.7894 24.3787 14.6454 24.3787C10.9155 24.3787 8.36096 21.7844 7.60871 19.1049L7.59304 19.0275L7.56953 18.9346C7.27176 17.8116 7.20124 17.2773 7.20124 16.0924C7.18557 9.68024 13.854 2.53235 23.4452 2.53235C33.0364 2.53235 38.8977 9.92806 40.3395 14.0325L40.269 13.8156C37.4794 5.77717 29.7688 0 20.6947 0C9.26209 0 0 9.15364 0 20.4524C0 30.5508 7.36579 39.1934 17.5839 39.1934C25.7333 39.1934 31.2106 34.6785 33.7259 28.4522C35.1051 25.0447 34.1256 21.0487 30.999 18.9423" fill="#003668"/>
<path d="M40.4727 14.4353C39.2659 10.4238 33.6005 2.53247 23.4451 2.53247C13.8461 2.53247 7.18555 9.68036 7.18555 16.0926C7.18555 17.2852 7.25607 17.8195 7.55384 18.9347C7.42846 18.4468 7.36577 17.9512 7.36577 17.471C7.36577 10.7878 14.136 6.15675 21.0944 6.15675C30.5132 6.15675 38.1532 13.7073 38.1532 23.0159C38.1532 30.3186 33.8983 36.6379 27.7236 39.6659C35.6849 36.8238 41.3738 29.2887 41.3738 20.437C41.3738 18.3461 41.0917 16.4953 40.4648 14.4198" fill="#E6002D"/>
<path d="M62.4993 20.1345V24.5642H60.6266V21.7685H50.9021V20.1345H62.4993ZM55.7918 29.5437V27.3753H49.8286V25.7413H63.6512V27.3753H57.6724V29.5437H62.5385V34.7246H60.6657V31.1623H50.7768V29.5437H55.7996H55.7918Z" fill="#595857"/>
<path d="M76.8706 19.8403H78.7434V28.1344H76.8706V19.8403ZM76.9019 31.3637H68.7917V32.8661H76.9019V31.3637ZM66.9581 28.6377H68.7917V29.8691H76.9019V28.6377H78.7355V34.3994H66.9581V28.6377ZM74.222 27.8556H66.1118V23.3252H72.1925V21.8383H66.1118V20.274H74.0496V24.8198H67.9689V26.3222H74.222V27.8556Z" fill="#595857"/>
<path d="M126.243 28.181H124.386V19.8328H126.243V22.9459H128.398V24.7813H126.243V28.181ZM120.123 23.7978H115.978V26.0901H120.123V23.7978ZM114.411 29.0638H126.243V34.5622H124.386V30.6979H114.411V29.0638ZM114.121 20.1503H115.978V22.1947H120.123V20.1503H121.941V27.6467H114.121V20.1503Z" fill="#595857"/>
<path d="M140.654 21.5207H132.755V23.2554H140.654V21.5207ZM130.913 20.0183H142.511V24.7268H130.913V20.0183ZM135.764 28.2659V27.2359H129.801V25.718H143.616V27.2359H137.637V28.2659H142.503V32.0296H132.747V32.9279H142.707V34.4457H130.913V30.5814H140.654V29.7295H130.913V28.2659H135.764Z" fill="#595857"/>
<path d="M158.08 29.598H156.215V19.8403H158.08V23.8363H160V25.5168H158.08V29.598ZM146.373 34.4459V29.9775H148.246V32.8119H158.354V34.4459H146.373ZM152.391 25.7027V21.7531H145.989V20.1346H154.233V25.6949H152.391V25.7027ZM155.071 27.1199V28.7384H145.315V27.1199H148.364V23.8054H150.221V27.1199H155.071Z" fill="#595857"/>
<path d="M81.3057 20.7577H87.933V22.3827H83.2631V30.9797H88.1288V32.5786H81.3057V20.7577ZM93.2461 19.8403H95.1196V34.5968H93.2461V27.4675H91.1488V34.4919H89.3032V19.8403H91.1488V25.8949H93.2461V19.8403Z" fill="#595857"/>
<path d="M97.4965 29.8527V28.2276H111.982V29.8527H105.718V34.623H103.76V29.8527H97.4965ZM108.822 26.9433V21.9372H98.6151V20.3121H110.779V26.9433H108.822Z" fill="#595857"/>
<path d="M59.5687 9.68772V10.8416H55.4078V12.4601H54.0679V10.8416H49.8286V9.68772H59.5765H59.5687ZM50.6044 4.59204H58.7773V8.61902H50.6044V4.59204ZM51.9208 11.5773V13.6063H58.9105V14.7602H50.6044V11.5773H51.9208ZM57.4687 5.70721H51.8973V7.54258H57.4687V5.70721Z" fill="#595857"/>
<path d="M67.5848 13.8928H60.6343V12.7544H63.4317V11.4533C63.3063 11.4224 63.181 11.3836 63.0713 11.3372C62.75 11.2133 62.4757 11.0429 62.2406 10.8338C62.0056 10.617 61.8175 10.3614 61.6843 10.0749C61.5511 9.78833 61.4806 9.4863 61.4806 9.16879C61.4806 8.85128 61.5511 8.54926 61.6843 8.26272C61.8175 7.98393 62.0056 7.72837 62.2406 7.51154C62.4757 7.2947 62.75 7.12433 63.0634 7.00042C63.3769 6.87651 63.7138 6.8223 64.0664 6.8223C64.419 6.8223 64.756 6.88426 65.0616 7.00042C65.375 7.12433 65.6415 7.2947 65.8687 7.51154C66.1038 7.72837 66.2918 7.98393 66.4329 8.26272C66.5739 8.54151 66.6445 8.84354 66.6445 9.16879C66.6445 9.49405 66.5739 9.79607 66.4329 10.0749C66.2918 10.3614 66.1038 10.617 65.8687 10.8338C65.6415 11.0429 65.3672 11.2133 65.0616 11.3372C64.9362 11.3914 64.803 11.4378 64.6698 11.4688V12.7621H67.5848V13.9005V13.8928ZM63.3298 5.50579V4.39062H64.756V5.50579H67.334V6.62095H60.7518V5.50579H63.3298ZM65.3594 9.14556C65.3594 8.79707 65.234 8.50279 64.9754 8.26272C64.7246 8.01491 64.4112 7.891 64.0508 7.891C63.6903 7.891 63.3769 8.01491 63.1261 8.26272C62.8754 8.51054 62.75 8.80482 62.75 9.14556C62.75 9.48631 62.8754 9.78833 63.1261 10.0361C63.3769 10.284 63.6903 10.4156 64.0508 10.4156C64.4112 10.4156 64.7246 10.2917 64.9754 10.0361C65.2261 9.78833 65.3594 9.48631 65.3594 9.14556ZM69.6378 14.9382H68.3292V4.46032H69.6378V9.00617H70.9934V10.2607H69.6378V14.9382Z" fill="#595857"/>
<path d="M71.5816 6.62095V5.50579H73.8305V4.39062H75.2174V5.50579H77.3332V6.62095H74.9354L77.4585 13.2113L76.3066 13.5985L74.5357 8.85128L72.7648 13.6759L71.5737 13.3042L74.1047 6.62095H71.5816ZM78.2108 4.46807H79.4332V14.8763H78.2108V9.81156H76.8317V8.6267H78.2108V4.46807ZM80.4362 4.46032H81.7056V14.9382H80.4362V4.46032Z" fill="#595857"/>
<path d="M91.9624 11.7323V14.9616H90.6381V12.8475H83.5309V11.7323H85.2156L85.2313 10.5087H82.998V9.37806H92.746V10.5087H90.4971V11.7323H91.9624ZM90.4892 6.61339C90.4892 6.93864 90.4187 7.24841 90.2776 7.54269C90.1366 7.82922 89.9485 8.09253 89.7213 8.31711C89.4862 8.5262 89.2041 8.69657 88.8907 8.82823C88.5772 8.95988 88.2325 9.02183 87.8798 9.02183C87.5272 9.02183 87.1824 8.95988 86.8612 8.82823C86.5399 8.69657 86.2656 8.5262 86.0227 8.31711C85.7955 8.09253 85.6074 7.82922 85.4664 7.54269C85.3253 7.24841 85.2548 6.94639 85.2548 6.61339C85.2548 6.28039 85.3253 5.97836 85.4664 5.68408C85.6074 5.39755 85.7955 5.13425 86.0227 4.90966C86.2578 4.69283 86.5399 4.51471 86.8612 4.38306C87.1824 4.25141 87.5194 4.18945 87.8798 4.18945C88.2403 4.18945 88.5694 4.25141 88.8907 4.38306C89.2041 4.51471 89.4862 4.68508 89.7213 4.90966C89.9485 5.13425 90.1366 5.39755 90.2776 5.68408C90.4187 5.97062 90.4892 6.28039 90.4892 6.61339ZM86.438 11.7323H89.2903V10.5087H86.4537V11.7323H86.438ZM89.1806 6.61339C89.1806 6.25715 89.0552 5.96287 88.7967 5.71506C88.5381 5.46725 88.2325 5.34334 87.8642 5.34334C87.4959 5.34334 87.1824 5.46725 86.9239 5.71506C86.6653 5.96287 86.5321 6.2649 86.5321 6.61339C86.5321 6.96187 86.6653 7.27164 86.9239 7.51946C87.1824 7.76727 87.4959 7.89892 87.8642 7.89892C88.2325 7.89892 88.5381 7.77502 88.7967 7.51946C89.0552 7.27164 89.1806 6.96962 89.1806 6.61339Z" fill="#595857"/>
<path d="M100.434 9.47844V10.6168H94.1021V9.47844H96.2413V7.20165H97.4872V9.47844H100.434ZM98.7801 8.51816V5.83867H94.392V4.67704H100.065V8.51816H98.7801ZM95.8887 11.4532V13.5829H103.223V14.729H94.5722V11.4532H95.8887ZM102.933 10.9808H101.617V4.46021H102.933V7.02353H104.289V8.27035H102.933V10.9808Z" fill="#595857"/>
<path d="M107.336 8.95965V6.91518H108.582V8.95965H111.529V10.0516H105.197V8.95965H107.336ZM109.883 8.0226V5.82325H105.495V4.66937H111.16V8.01486H109.883V8.0226ZM113.088 12.8627C113.088 13.2035 113.018 13.5132 112.876 13.7998C112.735 14.0863 112.547 14.3419 112.304 14.5664C112.077 14.7833 111.803 14.9614 111.49 15.0931C111.168 15.2247 110.831 15.2867 110.463 15.2867C110.095 15.2867 109.758 15.2247 109.444 15.0931C109.123 14.9614 108.849 14.791 108.606 14.5664C108.371 14.3419 108.183 14.0863 108.042 13.7998C107.901 13.5132 107.83 13.2035 107.83 12.8627C107.83 12.522 107.901 12.2122 108.042 11.9179C108.183 11.6237 108.371 11.3681 108.606 11.1358C108.849 10.9267 109.123 10.7563 109.444 10.6247C109.758 10.493 110.103 10.431 110.463 10.431C110.823 10.431 111.168 10.493 111.49 10.6247C111.803 10.7563 112.077 10.9267 112.304 11.1358C112.54 11.3604 112.728 11.6237 112.876 11.9179C113.018 12.2122 113.088 12.5297 113.088 12.8627ZM111.787 12.855C111.787 12.4987 111.662 12.189 111.396 11.9334C111.137 11.6779 110.823 11.554 110.455 11.554C110.087 11.554 109.773 11.6779 109.507 11.9334C109.241 12.189 109.107 12.4987 109.107 12.855C109.107 13.2112 109.241 13.521 109.507 13.7688C109.773 14.0166 110.087 14.1405 110.455 14.1405C110.823 14.1405 111.129 14.0166 111.396 13.7688C111.662 13.521 111.787 13.219 111.787 12.855ZM114.036 10.2374H112.72V4.46802H114.036V6.60542H115.392V7.829H114.036V10.2374Z" fill="#595857"/>
<path d="M116.121 11.0818H125.861V12.2357H121.645V14.9385H120.329V12.2357H116.121V11.0818ZM118.197 5.96293H123.768V4.63867H125.077V9.68014H116.904V4.63867H118.197V5.96293ZM123.768 7.09358H118.197V8.54175H123.768V7.09358Z" fill="#595857"/>
</svg>
